Coordinates
version=1
nRows=9
nColumns=24
inDegrees=yes

Units are S.I. units (second, meters, Newtons, ...)
Angles are in degrees.

endheader
time	pelvis_tilt	pelvis_list	pelvis_rotation	pelvis_tx	pelvis_ty	pelvis_tz	hip_flexion_r	hip_adduction_r	hip_rotation_r	knee_angle_r	ankle_angle_r	subtalar_angle_r	mtp_angle_r	hip_flexion_l	hip_adduction_l	hip_rotation_l	knee_angle_l	ankle_angle_l	subtalar_angle_l	mtp_angle_l	lumbar_extension	lumbar_bending	lumbar_rotation
      7.22000000	      4.20722334	     -1.79544790	      3.51847210	      1.37900476	      0.91855401	     -0.16468012	     14.28741356	      4.87010547	     -4.53755965	     -4.08204617	     -0.05533231	     -3.21035988	      0.00000000	    -17.52914638	      0.47011279	     -1.70930619	    -15.07265420	     13.57710278	      0.94352509	      0.00000000	    -21.22156588	      3.58533545	     -5.10284605
      7.23000000	      4.42077355	     -2.16743098	      3.51935245	      1.39105552	      0.91981260	     -0.16330155	     14.09369941	      5.41507864	     -3.57955029	     -5.43823747	     -0.78569622	     -4.04819532	      0.00000000	    -17.45053613	     -0.23534862	     -2.51936664	    -16.88122658	     12.32939670	      1.73062807	      0.00000000	    -21.18741501	      4.00634848	     -5.08709378
      7.24000000	      4.64648076	     -2.48368060	      3.48394530	      1.40304300	      0.92121944	     -0.16185573	     13.89900420	      5.91814413	     -2.84809493	     -6.84959318	     -1.12287121	     -4.73552638	      0.00000000	    -17.23680918	     -0.90644449	     -3.45512872	    -18.89568077	     10.78802362	      2.44059887	      0.00000000	    -21.17102942	      4.34236732	     -5.05815651
      7.25000000	      4.86591990	     -2.72668463	      3.39086438	      1.41492944	      0.92267786	     -0.16030917	     13.69158618	      6.35551371	     -2.34935888	     -8.25769283	     -1.05510373	     -5.17774438	      0.00000000	    -16.87966801	     -1.51806965	     -4.47230767	    -21.08297618	      8.89732620	      2.92258995	      0.00000000	    -21.15944244	      4.55928254	     -5.00769153
      7.26000000	      5.09115696	     -2.90420658	      3.30720119	      1.42668292	      0.92416398	     -0.15875593	     13.39451775	      6.71628255	     -2.08111408	     -9.53385023	     -0.68397484	     -5.42428657	      0.00000000	    -16.37968912	     -2.09416170	     -5.43530318	    -23.43814710	      6.61985734	      3.11076674	      0.00000000	    -21.16048900	      4.69670177	     -4.98302591
      7.27000000	      5.28527124	     -3.04519399	      3.21893044	      1.43825413	      0.92555200	     -0.15711214	     13.03799645	      7.04159478	     -1.90416016	    -10.64942402	     -0.05427763	     -5.66138309	      0.00000000	    -15.69064072	     -2.67669327	     -6.37896746	    -25.97182406	      4.11731041	      3.12039454	      0.00000000	    -21.14932503	      4.76577248	     -4.96685562
      7.28000000	      5.38353614	     -3.12927092	      3.14892568	      1.44957616	      0.92675895	     -0.15550901	     12.70355748	      7.27886215	     -1.94490834	    -11.61146937	      0.86543671	     -5.66516155	      0.00000000	    -14.76663221	     -3.18029626	     -7.02214348	    -28.60814561	      1.26667682	      2.44319259	      0.00000000	    -21.05923762	      4.75455744	     -4.94799950
      7.29000000	      5.50319929	     -3.23486910	      3.15453762	      1.46068000	      0.92794996	     -0.15403282	     12.21942795	      7.51121474	     -2.17824306	    -12.31714030	      1.84106881	     -5.46831459	      0.00000000	    -13.74093661	     -3.71170959	     -7.39984146	    -31.32364473	     -1.75894372	      1.41012845	      0.00000000	    -21.03590719	      4.79542685	     -4.95403857
      7.30000000	      5.61892326	     -3.37028339	      3.23800694	      1.47154812	      0.92908993	     -0.15273898	     11.64990318	      7.73103355	     -2.72054104	    -12.82492443	      2.94055681	     -4.88388838	      0.00000000	    -12.59775434	     -4.25355649	     -7.49162819	    -34.09348699	     -4.75888575	      0.09039720	      0.00000000	    -21.05622038	      4.90130247	     -4.96658187
